HIERARCHY
ROOT Hips
{
    OFFSET   0.000000   0.000000   0.000000
    CHANNELS 6 Xposition Yposition Zposition Zrotation Xrotation Yrotation
    JOINT Chest
    {
        OFFSET   0.000000   8.007230   0.000000
        CHANNELS 3 Zrotation Xrotation Yrotation
        JOINT Chest2
        {
            OFFSET   0.000000  22.077100   0.000000
            CHANNELS 3 Zrotation Xrotation Yrotation
            JOINT Neck
            {
                OFFSET   0.000000  23.254800  -0.000021
                CHANNELS 3 Zrotation Xrotation Yrotation
                JOINT Head
                {
                    OFFSET   0.000000  14.370000   1.956610
                    CHANNELS 3 Zrotation Xrotation Yrotation
                    End Site
                    {
                        OFFSET   0.000000  19.566000   0.000000
                    }
                }
            }
            JOINT LeftCollar
            {
                OFFSET   3.911900  19.017000  -0.467063
                CHANNELS 3 Zrotation Xrotation Yrotation
                JOINT LeftShoulder
                {
                    OFFSET  10.383700   0.000000   0.000000
                    CHANNELS 3 Zrotation Xrotation Yrotation
                    JOINT LeftElbow
                    {
                        OFFSET  26.662100   0.001529   0.000325
                        CHANNELS 3 Zrotation Xrotation Yrotation
                        JOINT LeftWrist
                        {
                            OFFSET  28.869000  -0.000011  -0.000096
                            CHANNELS 3 Zrotation Xrotation Yrotation
                            JOINT LeftFinger0
                            {
                                OFFSET   2.044650  -2.323460   3.252850
                                CHANNELS 3 Zrotation Xrotation Yrotation
                                JOINT LeftFinger01
                                {
                                    OFFSET   3.088130   0.000000   0.000000
                                    CHANNELS 3 Zrotation Xrotation Yrotation
                                    JOINT LeftFinger02
                                    {
                                        OFFSET   2.639460   0.000000   0.000000
                                        CHANNELS 3 Zrotation Xrotation Yrotation
                                        End Site
                                        {
                                            OFFSET   2.582190   0.000000   0.000000
                                        }
                                    }
                                }
                            }
                            JOINT LeftFinger1
                            {
                                OFFSET   8.364480   0.000000   3.252850
                                CHANNELS 3 Zrotation Xrotation Yrotation
                                JOINT LeftFinger11
                                {
                                    OFFSET   4.646930   0.000000   0.000000
                                    CHANNELS 3 Zrotation Xrotation Yrotation
                                    JOINT LeftFinger12
                                    {
                                        OFFSET   2.323460   0.000000   0.000000
                                        CHANNELS 3 Zrotation Xrotation Yrotation
                                        End Site
                                        {
                                            OFFSET   2.273050   0.000000   0.000000
                                        }
                                    }
                                }
                            }
                            JOINT LeftFinger2
                            {
                                OFFSET   8.364480   0.000016   1.078090
                                CHANNELS 3 Zrotation Xrotation Yrotation
                                JOINT LeftFinger21
                                {
                                    OFFSET   5.111620   0.000000   0.000000
                                    CHANNELS 3 Zrotation Xrotation Yrotation
                                    JOINT LeftFinger22
                                    {
                                        OFFSET   2.788160   0.000017   0.000000
                                        CHANNELS 3 Zrotation Xrotation Yrotation
                                        End Site
                                        {
                                            OFFSET   2.727660   0.000000   0.000000
                                        }
                                    }
                                }
                            }
                            JOINT LeftFinger3
                            {
                                OFFSET   7.899780   0.000015  -1.078090
                                CHANNELS 3 Zrotation Xrotation Yrotation
                                JOINT LeftFinger31
                                {
                                    OFFSET   4.646920   0.000000   0.000000
                                    CHANNELS 3 Zrotation Xrotation Yrotation
                                    JOINT LeftFinger32
                                    {
                                        OFFSET   2.323470   0.000000   0.000000
                                        CHANNELS 3 Zrotation Xrotation Yrotation
                                        End Site
                                        {
                                            OFFSET   2.273050   0.000000   0.000000
                                        }
                                    }
                                }
                            }
                            JOINT LeftFinger4
                            {
                                OFFSET   7.435090   0.000000  -3.252850
                                CHANNELS 3 Zrotation Xrotation Yrotation
                                JOINT LeftFinger41
                                {
                                    OFFSET   3.717550   0.000000   0.000000
                                    CHANNELS 3 Zrotation Xrotation Yrotation
                                    JOINT LeftFinger42
                                    {
                                        OFFSET   1.858760   0.000000   0.000000
                                        CHANNELS 3 Zrotation Xrotation Yrotation
                                        End Site
                                        {
                                            OFFSET   1.818440   0.000000   0.000000
                                        }
                                    }
                                }
                            }
                        }
                    }
                }
            }
            JOINT RightCollar
            {
                OFFSET  -3.911900  19.017000  -0.467062
                CHANNELS 3 Zrotation Xrotation Yrotation
                JOINT RightShoulder
                {
                    OFFSET -10.383700   0.000015   0.000000
                    CHANNELS 3 Zrotation Xrotation Yrotation
                    JOINT RightElbow
                    {
                        OFFSET -26.662100   0.001341   0.000385
                        CHANNELS 3 Zrotation Xrotation Yrotation
                        JOINT RightWrist
                        {
                            OFFSET -28.869000   0.000025  -0.000080
                            CHANNELS 3 Zrotation Xrotation Yrotation
                            JOINT RightFinger0
                            {
                                OFFSET  -2.044650  -2.323490   3.252850
                                CHANNELS 3 Zrotation Xrotation Yrotation
                                JOINT RightFinger01
                                {
                                    OFFSET  -3.088130   0.000000   0.000000
                                    CHANNELS 3 Zrotation Xrotation Yrotation
                                    JOINT RightFinger02
                                    {
                                        OFFSET  -2.639460   0.000000   0.000000
                                        CHANNELS 3 Zrotation Xrotation Yrotation
                                        End Site
                                        {
                                            OFFSET  -2.582190   0.000000   0.000000
                                        }
                                    }
                                }
                            }
                            JOINT RightFinger1
                            {
                                OFFSET  -8.364480   0.000000   3.252850
                                CHANNELS 3 Zrotation Xrotation Yrotation
                                JOINT RightFinger11
                                {
                                    OFFSET  -4.646930   0.000000   0.000000
                                    CHANNELS 3 Zrotation Xrotation Yrotation
                                    JOINT RightFinger12
                                    {
                                        OFFSET  -2.323470   0.000000   0.000000
                                        CHANNELS 3 Zrotation Xrotation Yrotation
                                        End Site
                                        {
                                            OFFSET  -2.273050   0.000000   0.000000
                                        }
                                    }
                                }
                            }
                            JOINT RightFinger2
                            {
                                OFFSET  -8.364480   0.000000   1.078090
                                CHANNELS 3 Zrotation Xrotation Yrotation
                                JOINT RightFinger21
                                {
                                    OFFSET  -5.111610   0.000000   0.000000
                                    CHANNELS 3 Zrotation Xrotation Yrotation
                                    JOINT RightFinger22
                                    {
                                        OFFSET  -2.788160   0.000000   0.000000
                                        CHANNELS 3 Zrotation Xrotation Yrotation
                                        End Site
                                        {
                                            OFFSET  -2.727660   0.000000   0.000000
                                        }
                                    }
                                }
                            }
                            JOINT RightFinger3
                            {
                                OFFSET  -7.899780   0.000000  -1.078090
                                CHANNELS 3 Zrotation Xrotation Yrotation
                                JOINT RightFinger31
                                {
                                    OFFSET  -4.646920   0.000000   0.000000
                                    CHANNELS 3 Zrotation Xrotation Yrotation
                                    JOINT RightFinger32
                                    {
                                        OFFSET  -2.323470   0.000000   0.000000
                                        CHANNELS 3 Zrotation Xrotation Yrotation
                                        End Site
                                        {
                                            OFFSET  -2.273050   0.000000   0.000000
                                        }
                                    }
                                }
                            }
                            JOINT RightFinger4
                            {
                                OFFSET  -7.435090   0.000000  -3.252850
                                CHANNELS 3 Zrotation Xrotation Yrotation
                                JOINT RightFinger41
                                {
                                    OFFSET  -3.717550   0.000000   0.000000
                                    CHANNELS 3 Zrotation Xrotation Yrotation
                                    JOINT RightFinger42
                                    {
                                        OFFSET  -1.858770   0.000000   0.000000
                                        CHANNELS 3 Zrotation Xrotation Yrotation
                                        End Site
                                        {
                                            OFFSET  -1.818440   0.000000   0.000000
                                        }
                                    }
                                }
                            }
                        }
                    }
                }
            }
        }
    }
    JOINT LeftHip
    {
        OFFSET   9.783010   0.000000   0.000000
        CHANNELS 3 Zrotation Xrotation Yrotation
        JOINT LeftKnee
        {
            OFFSET   0.000070 -41.789100   0.000028
            CHANNELS 3 Zrotation Xrotation Yrotation
            JOINT LeftAnkle
            {
                OFFSET   0.000087 -41.133200  -0.000100
                CHANNELS 3 Zrotation Xrotation Yrotation
                JOINT LeftToe
                {
                    OFFSET   0.000000  -6.358960  14.674500
                    CHANNELS 3 Zrotation Xrotation Yrotation
                    End Site
                    {
                        OFFSET   0.000000   0.000000   3.913200
                    }
                }
            }
        }
    }
    JOINT RightHip
    {
        OFFSET  -9.783020   0.000000   0.000000
        CHANNELS 3 Zrotation Xrotation Yrotation
        JOINT RightKnee
        {
            OFFSET   0.000044 -41.789100  -0.000870
            CHANNELS 3 Zrotation Xrotation Yrotation
            JOINT RightAnkle
            {
                OFFSET  -0.000090 -41.133200  -0.000245
                CHANNELS 3 Zrotation Xrotation Yrotation
                JOINT RightToe
                {
                    OFFSET   0.000000  -6.358960  14.674500
                    CHANNELS 3 Zrotation Xrotation Yrotation
                    End Site
                    {
                        OFFSET   0.000000   0.000000   3.913200
                    }
                }
            }
        }
    }
}
MOTION
Frames: 4
Frame Time:   0.016667
  0.404512  90.107800   0.146135  -2.521430  -2.895220  -0.388761   1.142130   2.438480  -0.563383   2.311380   4.865120  -1.176950   2.456140   1.329470  -0.060801   4.053460   2.680220   4.647710  -3.234270  -0.107905   5.391170 -72.871000  20.434700  -1.427230  -3.287750  -4.824600 -13.788100  13.548700   4.753220  10.217600  38.366300  20.230800 -59.548600 -18.629300  -0.009400   0.008252  -4.314650   0.002680  -0.000175 -30.463700   8.435840 -14.004500 -25.774100   0.002819  -0.007634 -18.041900  -0.001073  -0.004957 -28.439000   4.213640  -7.721640 -39.513300  -0.004415  -0.013432 -26.315900   0.000000  -0.010593 -27.052300   3.603020  -7.013540 -28.151000   0.001698   0.001723 -18.748600  -0.005673   0.001495 -31.605100   0.952498  -1.551140 -47.426800  -0.005473  -0.001278 -31.586200  -0.001480  -0.002087   7.035750   2.096210   7.708310  69.222900   8.544030  -6.216120   3.188340  -8.486110   9.734810 -16.645700 -21.687600   1.400580 -37.309600  28.277300  64.988000  28.433300   0.002152  -0.004593   9.216630   0.002273  -0.002444  28.567200   1.403360   2.575610  23.399000  -0.001665   0.002485  16.379300  -0.006069   0.002030  27.834500  -1.887280  -3.569020  31.329500  -0.003134   0.006564  20.865400   0.000875   0.004420  27.545300  -3.592970  -6.851360  30.558700  -0.001443   0.001056  20.352100  -0.001925   0.011861  36.792000  -4.649070  -6.185410  55.564900   0.001954   0.000893  37.006300   0.004019  -0.000600   3.309390   3.761690   1.047590   0.324604   0.671860  13.635800  -6.132150  -2.828030   4.802680  -0.000000   0.000000  -0.000000   2.568500   3.145640 -10.519800  -0.249589   2.506170  -7.014880  -9.240710   1.349770  -0.295105   0.000000   0.000000  -0.000000
  0.404872  90.107700   0.142411  -2.520590  -2.917440  -0.370514   1.142160   2.448880  -0.565293   2.311630   4.885870  -1.181000   2.456060   1.352180  -0.060614   4.051210   2.726600   4.642560  -3.229910  -0.111624   5.405300 -72.880400  20.442800  -1.427300  -3.287150  -4.820580 -13.781400  13.551300   4.739970  10.214900  38.357100  20.222100 -59.551100 -18.629300  -0.009399   0.008554  -4.314650   0.002588  -0.000353 -30.472000   8.441520 -14.009000 -25.781700   0.002820  -0.007652 -18.047200  -0.001077  -0.004963 -28.438700   4.213670  -7.725580 -39.524100  -0.004411  -0.013764 -26.323100  -0.000118  -0.010814 -27.054200   3.602950  -7.013540 -28.158500  -0.004364  -0.007711 -18.753500  -0.005846  -0.006079 -31.609800   0.952505  -1.551140 -47.433800  -0.005566  -0.001020 -31.590800  -0.001483  -0.002124   7.029720   2.090630   7.708330  69.229300   8.552350  -6.207880   3.174100  -8.467150   9.752990 -16.641600 -21.706800   1.418570 -37.326400  28.275500  65.010100  28.388000   0.002153  -0.004605   9.193960   0.002271  -0.002442  28.574700   1.416000   2.595870  23.405600  -0.001660   0.002476  16.383900  -0.006067   0.002024  27.854000  -1.848950  -3.492860  31.431600  -0.003126   0.006568  20.933400   0.000864   0.004405  27.554900  -3.596100  -6.856060  30.612400  -0.001446   0.000936  20.387900  -0.001934   0.011870  36.835200  -4.655110  -6.188490  55.630700   0.001942   0.000783  37.050100   0.003988  -0.000595   3.308690   3.777510   1.048020   0.327123   0.672811  13.624000  -6.131770  -2.825640   4.797270  -0.000000   0.000000   0.000000   2.570670   3.159340 -10.519800  -0.246934   2.521540  -7.021960  -9.240180   1.341470  -0.306023   0.000000   0.000000   0.000000
  0.405232  90.107700   0.136660  -2.519120  -2.957230  -0.338296   1.142190   2.467550  -0.568411   2.312050   4.923130  -1.187640   2.456000   1.388580  -0.060427   4.049480   2.800720   4.626320  -3.222380  -0.118281   5.430490 -72.893800  20.464700  -1.427500  -3.288390  -4.816570 -13.774800  13.554100   4.726750  10.209700  38.341700  20.210600 -59.558500 -18.629300  -0.009396   0.008983  -4.314660   0.002438  -0.000654 -30.484300   8.451620 -14.018400 -25.793400   0.002828  -0.007693 -18.055400  -0.001087  -0.004973 -28.438200   4.213730  -7.731650 -39.549600  -0.004407  -0.014096 -26.340000  -0.000321  -0.011036 -27.057900   3.602890  -7.013540 -28.173700  -0.012285  -0.017145 -18.763700  -0.006019  -0.013653 -31.615500   0.952514  -1.551130 -47.442400  -0.005660  -0.000657 -31.596600  -0.001487  -0.002175   7.020230   2.072860   7.708290  69.251500   8.576320  -6.193050   3.145840  -8.437240   9.788440 -16.650500 -21.745100   1.449220 -37.341300  28.266700  65.048700  28.333300   0.002157  -0.004623   9.166620   0.002269  -0.002440  28.621400   1.428630   2.616130  23.444300  -0.001645   0.002456  16.411000  -0.006060   0.002007  27.890500  -1.810620  -3.416700  31.642200  -0.003104   0.006576  21.073700   0.000834   0.004366  27.579100  -3.618050  -6.888990  30.758000  -0.001449   0.000715  20.484900  -0.001954   0.011890  36.931000  -4.691290  -6.209950  55.778400   0.001918   0.000579  37.148400   0.003918  -0.000586   3.307770   3.805560   1.048460   0.330986   0.676821  13.604100  -6.131400  -2.822340   4.786660  -0.000000   0.000000  -0.000000   2.575060   3.185000 -10.519900  -0.242679   2.547220  -7.036290  -9.239500   1.327220  -0.325056   0.000000   0.000000  -0.000000
  0.403852  90.107700   0.132823  -2.517970  -2.994420  -0.307817   1.142180   2.485120  -0.571328   2.312400   4.958220  -1.193950   2.459180   1.414880  -0.060762   4.051760   2.853820   4.601480  -3.215930  -0.124428   5.455170 -72.896500  20.500300  -1.432600  -3.295810  -4.822540 -13.778700  13.548400   4.730880  10.202500  38.341000  20.238500 -59.594800 -18.650700  -0.004763   0.009186  -4.325360   0.002297  -0.000964 -30.490400   8.461020 -14.030000 -25.800100   0.002851  -0.007752 -18.060000  -0.001101  -0.004980 -28.438900   4.213870  -7.736170 -39.587800  -0.005755  -0.012276 -26.365400  -0.000547  -0.009989 -27.061400   3.606420  -7.017950 -28.190700  -0.014454  -0.016720 -18.775000  -0.005975  -0.013467 -31.616200   0.952522  -1.550580 -47.443500  -0.005636  -0.000500 -31.597300  -0.001486  -0.002200   7.014920   2.044450   7.702370  69.287700   8.613680  -6.177450   3.118270  -8.425240   9.818420 -16.703200 -21.789700   1.481750 -37.316700  28.240400  65.092700  28.322400   0.002170  -0.004635   9.161170   0.002264  -0.002449  28.719200   1.416770   2.581730  23.523800  -0.001621   0.002425  16.466700  -0.006046   0.001982  27.929600  -1.815280  -3.423860  31.888000  -0.003069   0.006585  21.237400   0.000786   0.004306  27.609300  -3.680040  -6.995150  30.961900  -0.001450   0.000429  20.620700  -0.001982   0.011917  37.050200  -4.781130  -6.295500  55.969400   0.001887   0.000317  37.275600   0.003813  -0.000577   3.307470   3.830510   1.046390   0.333330   0.685637  13.586400  -6.131690  -2.821190   4.774320   0.000000   0.000000   0.000000   2.580030   3.210610 -10.520100  -0.240315   2.568360  -7.054110  -9.239200   1.314730  -0.342506   0.000000   0.000000   0.000000
